HIERARCHY
ROOT Hips
{
	OFFSET 48.841599 5.296842 49.866501
	CHANNELS 6 Xposition Yposition Zposition Xrotation Yrotation Zrotation
	JOINT spine
	{
		OFFSET 0.000000 -0.359108 6.244789
		CHANNELS 3 Xrotation Yrotation Zrotation
		JOINT spine1
		{
			OFFSET 0.000000 -0.000001 9.069412
			CHANNELS 3 Xrotation Yrotation Zrotation
			JOINT spine2
			{
				OFFSET 0.000000 -0.000001 8.690140
				CHANNELS 3 Xrotation Yrotation Zrotation
				JOINT Neck
				{
					OFFSET 0.000000 -1.063724 22.311195
					CHANNELS 3 Xrotation Yrotation Zrotation
					JOINT Head
					{
						OFFSET 0.000000 -0.000001 6.740807
						CHANNELS 3 Xrotation Yrotation Zrotation
						End Site
						{
							OFFSET 0.000000 5.380968 16.316498
						}
					}
				}
				JOINT RightShoulder
				{
					OFFSET -3.659161 0.509512 9.384682
					CHANNELS 3 Xrotation Yrotation Zrotation
					JOINT RightArm
					{
						OFFSET 0.000000 -0.000002 12.308899
						CHANNELS 3 Xrotation Yrotation Zrotation
						JOINT RightArmRoll
						{
							OFFSET 0.000000 -0.000001 6.213753
							CHANNELS 3 Xrotation Yrotation Zrotation
							JOINT RightForeArm
							{
								OFFSET 0.000000 -0.000003 18.098503
								CHANNELS 3 Xrotation Yrotation Zrotation
								JOINT RightForeArmRoll
								{
									OFFSET 0.000000 -0.000001 6.972794
									CHANNELS 3 Xrotation Yrotation Zrotation
									JOINT RightHand
									{
										OFFSET 0.000000 -0.000002 13.992905
										CHANNELS 3 Xrotation Yrotation Zrotation
										End Site
										{
											OFFSET 0.000000 0.000000 0.100006
										}
									}
								}
							}
						}
					}
				}
				JOINT LeftShoulder
				{
					OFFSET 3.659161 0.509512 9.384682
					CHANNELS 3 Xrotation Yrotation Zrotation
					JOINT LeftArm
					{
						OFFSET 0.000000 -0.000002 12.308899
						CHANNELS 3 Xrotation Yrotation Zrotation
						JOINT LeftArmRoll
						{
							OFFSET 0.000000 -0.000001 6.213753
							CHANNELS 3 Xrotation Yrotation Zrotation
							JOINT LeftForeArm
							{
								OFFSET 0.000000 -0.000003 18.098503
								CHANNELS 3 Xrotation Yrotation Zrotation
								JOINT LeftForeArmRoll
								{
									OFFSET 0.000000 -0.000001 6.972801
									CHANNELS 3 Xrotation Yrotation Zrotation
									JOINT LeftHand
									{
										OFFSET 0.000000 -0.000002 13.992897
										CHANNELS 3 Xrotation Yrotation Zrotation
										End Site
										{
											OFFSET 0.000000 0.000000 0.100006
										}
									}
								}
							}
						}
					}
				}
			}
		}
	}
	JOINT RightUpLeg
	{
		OFFSET -5.535149 0.851454 -1.014999
		CHANNELS 3 Xrotation Yrotation Zrotation
		JOINT RightUpLegRoll
		{
			OFFSET 0.000000 -0.000002 16.407501
			CHANNELS 3 Xrotation Yrotation Zrotation
			JOINT RightLeg
			{
				OFFSET 0.000000 0.000003 -20.318100
				CHANNELS 3 Xrotation Yrotation Zrotation
				JOINT RightLegRoll
				{
					OFFSET 0.000000 -0.000003 20.384598
					CHANNELS 3 Xrotation Yrotation Zrotation
					JOINT RightFoot
					{
						OFFSET 0.000000 -0.000003 16.966797
						CHANNELS 3 Xrotation Yrotation Zrotation
						JOINT RightToeBase
						{
							OFFSET 0.000000 -0.000002 14.183403
							CHANNELS 3 Xrotation Yrotation Zrotation
							End Site
							{
								OFFSET 0.006012 0.791745 6.868889
							}
						}
					}
				}
			}
		}
	}
	JOINT LeftUpLeg
	{
		OFFSET 5.535149 0.851454 -1.014999
		CHANNELS 3 Xrotation Yrotation Zrotation
		JOINT LeftUpLegRoll
		{
			OFFSET 0.000000 -0.000002 16.407600
			CHANNELS 3 Xrotation Yrotation Zrotation
			JOINT LeftLeg
			{
				OFFSET 0.000000 -0.000003 20.318100
				CHANNELS 3 Xrotation Yrotation Zrotation
				JOINT LeftLegRoll
				{
					OFFSET 0.000000 -0.000003 20.573097
					CHANNELS 3 Xrotation Yrotation Zrotation
					JOINT LeftFoot
					{
						OFFSET 0.000000 -0.000003 16.778297
						CHANNELS 3 Xrotation Yrotation Zrotation
						JOINT LeftToeBase
						{
							OFFSET 0.000000 -0.000002 14.183403
							CHANNELS 3 Xrotation Yrotation Zrotation
							End Site
							{
								OFFSET -0.026943 0.791745 6.868896
							}
						}
					}
				}
			}
		}
	}
}
MOTION
Frames: 9
Frame Time: 0.041667
48.808598 -3.967425 61.660301 41.785919 4.210052 -3.357007 0.711278 -0.713913 0.081862 5.425485 -1.433492 0.174820 7.070776 -1.431306 0.191881 27.714927 0.225212 -2.986743 3.977524 -2.068559 -2.751119 -4.366501 -51.677915 -4.370940 -42.344663 -145.106194 -67.980682 0.000002 0.000006 0.000009 68.139142 -10.061898 3.107723 -0.000001 0.000006 -3.000000 -5.000167 -7.998715 0.000187 -3.988760 66.047895 5.333436 -59.450875 129.564331 81.999317 0.000002 0.000000 -0.000003 71.627825 7.641485 -1.352468 0.000002 -0.000011 2.999989 -5.000191 7.999930 -0.000028 -104.169742 -189.317462 3.055471 -179.999991 0.000005 -0.708986 100.510783 -2.158531 -2.484434 -0.000006 -0.000006 1.793619 82.336510 7.490607 -1.504588 25.473322 -7.347361 0.003135 -106.119870 180.118495 7.473942 -0.000006 -0.000004 -0.762643 -90.340214 -4.539502 -3.165189 0.000007 -0.000002 -3.142790 82.109946 -6.233867 -3.369629 28.434043 7.148033 -4.230675 
48.805798 -3.939852 61.612297 41.741902 4.197853 -3.357536 0.712592 -0.712788 0.081935 5.427756 -1.430421 0.174229 7.073060 -1.428252 0.191265 27.704395 0.253080 -2.996184 3.966880 -2.056316 -2.761624 -4.353808 -51.644560 -4.351777 -42.318974 -145.085799 -68.042713 0.000003 0.000006 0.000007 68.253391 -10.046674 3.099197 -0.000001 0.000006 -3.000001 -5.000163 -7.998717 0.000186 -3.979016 66.098520 5.327057 -59.502791 129.524962 82.107159 0.000002 0.000000 -0.000000 71.698900 7.614843 -1.325449 0.000002 -0.000012 2.999990 -5.000193 7.999929 -0.000026 -104.210600 -189.315140 3.071958 -179.999991 0.000004 -0.709997 100.421669 -2.146291 -2.472231 -0.000006 -0.000006 1.797190 82.340936 7.489666 -1.501746 25.473216 -7.347367 0.003132 -106.171227 180.136759 7.471550 -0.000005 -0.000005 -0.763172 -90.405074 -4.552044 -3.180799 0.000006 -0.000003 -3.144550 82.054423 -6.236306 -3.363035 28.443672 7.147089 -4.242989 
48.804695 -3.962552 61.538689 41.696744 4.184897 -3.358058 0.713950 -0.711645 0.081985 5.430120 -1.427289 0.173552 7.075418 -1.425129 0.190562 27.694066 0.282174 -3.006176 3.955935 -2.045110 -2.772514 -4.340543 -51.609428 -4.331725 -42.291476 -145.066538 -68.104178 0.000002 0.000005 0.000006 68.368404 -10.031304 3.090533 -0.000004 0.000004 -3.000001 -5.000167 -7.998718 0.000183 -3.967810 66.151892 5.319275 -59.560069 129.484472 82.220239 0.000000 0.000000 -0.000002 71.767181 7.588298 -1.298288 0.000004 -0.000011 2.999991 -5.000190 7.999931 -0.000028 -104.249874 -189.312954 3.087736 -179.999991 0.000004 -0.710994 100.333122 -2.133315 -2.460091 -0.000007 -0.000006 1.800800 82.345532 7.488481 -1.498327 25.473213 -7.347357 0.003148 -106.222371 180.155487 7.469348 -0.000005 -0.000004 -0.763669 -90.469025 -4.564616 -3.196289 0.000003 -0.000002 -3.146100 81.994481 -6.238939 -3.355902 28.454414 7.145991 -4.256865 
48.801994 -3.919652 61.492996 41.650750 4.171303 -3.358503 0.715335 -0.710500 0.082025 5.432546 -1.424147 0.172839 7.077836 -1.421986 0.189821 27.683342 0.312883 -3.016469 3.945419 -2.035768 -2.783424 -4.327160 -51.572491 -4.311343 -42.262745 -145.047687 -68.165288 0.000001 0.000006 0.000006 68.483759 -10.015807 3.081685 -0.000003 0.000008 -3.000000 -5.000166 -7.998717 0.000183 -3.955336 66.207298 5.310252 -59.619690 129.444488 82.334707 0.000002 0.000000 -0.000001 71.832642 7.562062 -1.271452 -0.000002 -0.000008 2.999992 -5.000192 7.999928 -0.000026 -104.287857 -189.310482 3.103563 -179.999991 0.000004 -0.712988 100.244815 -2.120113 -2.447920 -0.000006 -0.000006 1.804410 82.349870 7.487171 -1.494299 25.473124 -7.347362 0.003145 -106.273283 180.174516 7.466738 -0.000006 -0.000004 -0.764149 -90.532382 -4.577113 -3.211875 0.000007 -0.000002 -3.147500 81.931404 -6.241739 -3.348454 28.465937 7.144785 -4.271805 
48.801598 -3.840250 61.464401 41.603819 4.157247 -3.358798 0.716749 -0.709372 0.082066 5.435015 -1.421035 0.172137 7.080307 -1.418882 0.189094 27.671945 0.345589 -3.026840 3.936043 -2.029097 -2.794018 -4.314104 -51.533852 -4.291193 -42.232303 -145.029997 -68.224499 0.000003 0.000006 0.000007 68.599039 -10.000078 3.072544 0.000001 0.000007 -2.999998 -5.000167 -7.998716 0.000184 -3.941804 66.264036 5.300147 -59.682589 129.404409 82.451913 0.000002 0.000001 -0.000000 71.895138 7.536269 -1.245114 0.000002 -0.000009 2.999990 -5.000192 7.999928 -0.000027 -104.324958 -189.307272 3.118524 -179.999991 0.000004 -0.713986 100.157122 -2.106400 -2.433782 -0.000006 -0.000006 1.808000 82.353695 7.485771 -1.489744 25.473011 -7.347361 0.003138 -106.323970 180.193668 7.465150 -0.000003 -0.000004 -0.764628 -90.595499 -4.589504 -3.227160 0.000005 -0.000002 -3.148790 81.866627 -6.244603 -3.340907 28.477878 7.143510 -4.287288 
48.798695 -3.827651 61.400696 41.556175 4.142864 -3.358870 0.718146 -0.708282 0.082122 5.437520 -1.418013 0.171499 7.082811 -1.415867 0.188429 27.659363 0.380681 -3.037045 3.928550 -2.025932 -2.803922 -4.301852 -51.493377 -4.271840 -42.201294 -145.012074 -68.282979 0.000001 0.000006 0.000005 68.713950 -9.984115 3.063270 -0.000003 0.000007 -2.999998 -5.000168 -7.998715 0.000184 -3.927433 66.321191 5.289121 -59.747852 129.364862 82.570806 0.000000 -0.000001 -0.000001 71.954574 7.510977 -1.219358 0.000000 -0.000008 2.999988 -5.000195 7.999932 -0.000027 -104.361356 -189.302859 3.133185 -179.999991 0.000004 -0.714997 100.069805 -2.092868 -2.421578 -0.000009 -0.000007 1.811540 82.356679 7.484368 -1.484934 25.473018 -7.347363 0.003138 -106.374254 180.212765 7.462038 -0.000006 -0.000004 -0.765123 -90.658706 -4.601788 -3.242364 0.000006 -0.000002 -3.150019 81.801453 -6.247532 -3.333291 28.489808 7.142207 -4.302804 
48.799896 -3.765110 61.364296 41.507828 4.128312 -3.358643 0.719552 -0.707243 0.082203 5.440046 -1.415130 0.170971 7.085336 -1.412981 0.187876 27.645397 0.418542 -3.046848 3.923662 -2.027081 -2.812785 -4.290851 -51.451050 -4.253843 -42.168229 -144.996119 -68.337709 0.000004 0.000005 0.000010 68.827830 -9.967998 3.053798 -0.000002 0.000008 -3.000001 -5.000167 -7.998717 0.000186 -3.912410 66.377950 5.277335 -59.814583 129.326490 82.690156 -0.000000 -0.000000 -0.000001 72.010725 7.486448 -1.194634 0.000002 -0.000011 2.999989 -5.000192 7.999932 -0.000028 -104.397550 -189.296821 3.147698 -179.999991 0.000005 -0.716991 99.983123 -2.079209 -2.408372 -0.000008 -0.000006 1.815001 82.358544 7.482965 -1.479851 25.473018 -7.347360 0.003148 -106.424203 180.231671 7.458801 -0.000005 -0.000004 -0.765649 -90.722350 -4.613817 -3.257497 0.000007 -0.000003 -3.151250 81.737304 -6.250435 -3.325817 28.501329 7.140936 -4.317838 
48.797096 -3.737744 61.311096 41.458883 4.113746 -3.358050 0.720936 -0.706277 0.082321 5.442558 -1.412436 0.170603 7.087847 -1.410295 0.187487 27.629657 0.459559 -3.056009 3.922114 -2.033380 -2.820239 -4.281553 -51.407060 -4.237776 -42.134334 -144.980765 -68.389810 0.000005 0.000006 0.000007 68.940412 -9.951599 3.044024 -0.000001 0.000004 -2.999997 -5.000165 -7.998722 0.000186 -3.896979 66.433637 5.264989 -59.881559 129.289634 82.808694 0.000000 -0.000000 -0.000001 72.063612 7.462723 -1.171140 0.000002 -0.000009 2.999990 -5.000192 7.999932 -0.000027 -104.433811 -189.288748 3.162667 -179.999991 0.000004 -0.717988 99.897131 -2.066150 -2.396076 -0.000006 -0.000006 1.818349 82.359022 7.481595 -1.474773 25.473021 -7.347362 0.003148 -106.473647 180.250168 7.454892 -0.000004 -0.000004 -0.766222 -90.786745 -4.625618 -3.272474 0.000005 -0.000002 -3.152510 81.675484 -6.253226 -3.318819 28.512165 7.139715 -4.331886 
48.797096 -3.774292 61.231995 41.409343 4.099308 -3.357002 0.722287 -0.705402 0.082491 5.445055 -1.409981 0.170446 7.090342 -1.407845 0.187309 27.611661 0.504117 -3.064281 3.924615 -2.045645 -2.825939 -4.274383 -51.361195 -4.224151 -42.099076 -144.966722 -68.437731 0.000003 0.000004 0.000010 69.051157 -9.934993 3.033987 -0.000002 0.000004 -3.000000 -5.000167 -7.998713 0.000186 -3.881305 66.487404 5.252200 -59.947976 129.255046 82.925306 0.000001 -0.000000 0.000002 72.113076 7.439939 -1.149047 0.000003 -0.000010 2.999987 -5.000190 7.999930 -0.000028 -104.470366 -189.278052 3.178113 -179.999991 0.000004 -0.718985 99.811774 -2.053501 -2.385708 -0.000005 -0.000006 1.821570 82.357718 7.480398 -1.469767 25.473018 -7.347363 0.003138 -106.522578 180.268145 7.449767 -0.000007 -0.000004 -0.766858 -90.852212 -4.637104 -3.286809 0.000007 -0.000002 -3.153860 81.617455 -6.255867 -3.312097 28.521888 7.138604 -4.344435 
